<?xml version="1.0" encoding="utf-8"?>
<!-- Generator: Adobe Illustrator 26.4.1, SVG Export Plug-In . SVG Version: 6.00 Build 0)  -->
<svg version="1.1" id="Layer_1" xmlns="http://www.w3.org/2000/svg" xmlns:xlink="http://www.w3.org/1999/xlink" x="0px" y="0px"
	 viewBox="0 0 120 120" style="enable-background:new 0 0 120 120;" xml:space="preserve">
<style type="text/css">
	.st0{fill-rule:evenodd;clip-rule:evenodd;fill:#9A8178;}
	.st1{fill-rule:evenodd;clip-rule:evenodd;fill:#7C7570;}
	.st2{fill-rule:evenodd;clip-rule:evenodd;fill:#D5D5D1;}
	.st3{fill-rule:evenodd;clip-rule:evenodd;fill:#454B53;}
	.st4{fill-rule:evenodd;clip-rule:evenodd;fill:#CFD8DC;}
	.st5{fill:#454B53;}
	.st6{fill-rule:evenodd;clip-rule:evenodd;fill:#B0BEC5;}
	.st7{fill-rule:evenodd;clip-rule:evenodd;fill:#E0E0E0;}
	.st8{fill-rule:evenodd;clip-rule:evenodd;fill:#9CA2A6;}
	.st9{fill-rule:evenodd;clip-rule:evenodd;fill:#A9A9A9;}
	.st10{fill-rule:evenodd;clip-rule:evenodd;fill:#859095;}
</style>
<g>
	<g>
		<path class="st0" d="M25.3,94.8c0,0,1.3-1.4,1.4-3.6H38c0,0,0.1,1.9,1.5,3.6H25.3z"/>
		<rect x="23.4" y="95.3" class="st0" width="18.1" height="4.5"/>
		<path class="st1" d="M23.6,95.6h17.7c0.3,0,0.5-0.2,0.5-0.5v0c0-0.3-0.2-0.5-0.5-0.5H23.6c-0.3,0-0.5,0.2-0.5,0.5v0
			C23.1,95.3,23.3,95.6,23.6,95.6z"/>
		<path class="st1" d="M26.9,91.5H38c0.3,0,0.6-0.3,0.6-0.6l0,0c0-0.3-0.3-0.6-0.6-0.6H26.9c-0.3,0-0.6,0.3-0.6,0.6l0,0
			C26.2,91.2,26.5,91.5,26.9,91.5z"/>
		<rect x="27" y="52.5" class="st2" width="10.8" height="37.7"/>
		<path class="st3" d="M29.4,55.9L29.4,55.9c0.5,0,0.9,0.4,0.9,0.9V86c0,0.5-0.4,0.9-0.9,0.9l0,0c-0.5,0-0.9-0.4-0.9-0.9V56.8
			C28.5,56.3,28.9,55.9,29.4,55.9z"/>
		<path class="st3" d="M32.6,55.9L32.6,55.9c0.5,0,0.9,0.4,0.9,0.9V86c0,0.5-0.4,0.9-0.9,0.9l0,0c-0.5,0-0.9-0.4-0.9-0.9V56.8
			C31.7,56.3,32.1,55.9,32.6,55.9z"/>
		<path class="st3" d="M35.7,55.9L35.7,55.9c0.5,0,0.9,0.4,0.9,0.9V86c0,0.5-0.4,0.9-0.9,0.9l0,0c-0.5,0-0.9-0.4-0.9-0.9V56.8
			C34.8,56.3,35.2,55.9,35.7,55.9z"/>
		<path class="st0" d="M25.3,48.1c0,0,1.3,1.4,1.4,3.6H38c0,0,0.1-1.9,1.5-3.6H25.3z"/>
		<rect x="23.4" y="43.1" class="st0" width="18.1" height="4.5"/>
		<path class="st1" d="M23.6,47.3h17.7c0.3,0,0.5,0.2,0.5,0.5v0c0,0.3-0.2,0.5-0.5,0.5H23.6c-0.3,0-0.5-0.2-0.5-0.5v0
			C23.1,47.6,23.3,47.3,23.6,47.3z"/>
		<path class="st1" d="M26.9,51.4H38c0.3,0,0.6,0.3,0.6,0.6v0c0,0.3-0.3,0.6-0.6,0.6H26.9c-0.3,0-0.6-0.3-0.6-0.6v0
			C26.2,51.7,26.5,51.4,26.9,51.4z"/>
		<path class="st4" d="M25.3,94.8c0,0,1.3-1.4,1.4-3.6H38c0,0,0.1,1.9,1.5,3.6H25.3z"/>
		<path class="st5" d="M25.1,94.5c0.2-0.2,1.2-1.4,1.3-3.4c0-0.2,0.2-0.3,0.4-0.3v0H38c0.2,0,0.4,0.2,0.4,0.4c0,0.2,0.2,1.8,1.5,3.4
			c0.1,0.2,0.1,0.4,0,0.5c-0.1,0.1-0.1,0.1-0.2,0.1v0H25.3c-0.2,0-0.4-0.2-0.4-0.4C25,94.7,25,94.6,25.1,94.5L25.1,94.5z M27,91.5
			c-0.1,1.3-0.6,2.3-1,2.9h12.8c-0.8-1.2-1.1-2.4-1.2-2.9H27z"/>
		<rect x="23.4" y="95.3" class="st6" width="18.1" height="4.5"/>
		<path class="st5" d="M23.8,99.4h17.4v-3.7H23.8V99.4L23.8,99.4z M41.5,100.1H23.4c-0.2,0-0.4-0.2-0.4-0.4v-4.5
			c0-0.2,0.2-0.4,0.4-0.4h18.1c0.2,0,0.4,0.2,0.4,0.4v4.5C41.8,100,41.7,100.1,41.5,100.1z"/>
		<path class="st7" d="M23.6,95.6h17.7c0.3,0,0.5-0.2,0.5-0.5v0c0-0.3-0.2-0.5-0.5-0.5H23.6c-0.3,0-0.5,0.2-0.5,0.5v0
			C23.1,95.3,23.3,95.6,23.6,95.6z"/>
		<path class="st5" d="M23.6,95.2h17.7c0,0,0.1,0,0.1,0l0,0l0,0c0,0,0-0.1,0-0.1v0c0,0,0-0.1,0-0.1l0,0c0,0-0.1,0-0.1,0H23.6
			c0,0-0.1,0-0.1,0l0,0l0,0c0,0,0,0.1,0,0.1v0c0,0,0,0.1,0,0.1l0,0C23.5,95.2,23.5,95.2,23.6,95.2L23.6,95.2z M41.3,95.9H23.6
			c-0.2,0-0.4-0.1-0.6-0.3l0,0l0,0l0,0c-0.2-0.2-0.3-0.4-0.3-0.6v0c0-0.2,0.1-0.5,0.3-0.6l0,0c0.2-0.2,0.4-0.3,0.6-0.3h17.7
			c0.2,0,0.4,0.1,0.6,0.2c0,0,0,0,0,0c0.2,0.2,0.3,0.4,0.3,0.6v0c0,0.2-0.1,0.5-0.3,0.6l0,0C41.8,95.8,41.5,95.9,41.3,95.9z"/>
		<path class="st7" d="M26.9,91.5H38c0.3,0,0.6-0.3,0.6-0.6l0,0c0-0.3-0.3-0.6-0.6-0.6H26.9c-0.3,0-0.6,0.3-0.6,0.6l0,0
			C26.2,91.2,26.5,91.5,26.9,91.5z"/>
		<path class="st5" d="M26.9,91.1H38c0.1,0,0.1,0,0.2-0.1l0,0c0,0,0.1-0.1,0.1-0.2l0,0c0-0.1,0-0.1-0.1-0.2l0,0c0,0-0.1-0.1-0.2-0.1
			H26.9c-0.1,0-0.1,0-0.2,0.1c0,0-0.1,0.1-0.1,0.2l0,0c0,0.1,0,0.1,0.1,0.2l0,0l0,0C26.7,91.1,26.8,91.1,26.9,91.1L26.9,91.1z
			 M38,91.8H26.9c-0.3,0-0.5-0.1-0.7-0.3l0,0c-0.2-0.2-0.3-0.4-0.3-0.7l0,0c0-0.3,0.1-0.5,0.3-0.7c0.2-0.2,0.4-0.3,0.7-0.3H38
			c0.3,0,0.5,0.1,0.7,0.3c0,0,0,0,0,0c0.2,0.2,0.3,0.4,0.3,0.7l0,0c0,0.3-0.1,0.5-0.3,0.7c0,0,0,0,0,0C38.5,91.7,38.3,91.8,38,91.8z
			"/>
		<rect x="27" y="52.5" class="st7" width="10.8" height="37.7"/>
		<path class="st5" d="M27.4,89.8h10.1v-37H27.4V89.8L27.4,89.8z M37.8,90.6H27c-0.2,0-0.4-0.2-0.4-0.4V52.5c0-0.2,0.2-0.4,0.4-0.4
			h10.8c0.2,0,0.4,0.2,0.4,0.4v37.7C38.2,90.4,38,90.6,37.8,90.6z"/>
		<path class="st4" d="M25.3,48.1c0,0,1.3,1.4,1.4,3.6H38c0,0,0.1-1.9,1.5-3.6H25.3z"/>
		<path class="st5" d="M26,48.5c0.4,0.6,0.9,1.6,1,2.9h10.6c0.1-0.6,0.4-1.7,1.2-2.9H26L26,48.5z M26.3,51.7
			c-0.1-1.9-1.1-3.2-1.3-3.4C25,48.3,25,48.2,25,48.1c0-0.2,0.2-0.4,0.4-0.4h14.2v0c0.1,0,0.2,0,0.2,0.1c0.2,0.1,0.2,0.4,0,0.5
			c-1.3,1.6-1.4,3.2-1.5,3.4c0,0.2-0.2,0.4-0.4,0.4H26.7v0C26.5,52.1,26.3,51.9,26.3,51.7z"/>
		<rect x="23.4" y="43.1" class="st6" width="18.1" height="4.5"/>
		<path class="st5" d="M23.8,47.2h17.4v-3.7H23.8V47.2L23.8,47.2z M41.5,47.9H23.4c-0.2,0-0.4-0.2-0.4-0.4v-4.5
			c0-0.2,0.2-0.4,0.4-0.4h18.1c0.2,0,0.4,0.2,0.4,0.4v4.5C41.8,47.8,41.7,47.9,41.5,47.9z"/>
		<path class="st7" d="M23.6,47.3h17.7c0.3,0,0.5,0.2,0.5,0.5v0c0,0.3-0.2,0.5-0.5,0.5H23.6c-0.3,0-0.5-0.2-0.5-0.5v0
			C23.1,47.6,23.3,47.3,23.6,47.3z"/>
		<path class="st5" d="M23.6,47h17.7c0.2,0,0.5,0.1,0.6,0.3l0,0c0.2,0.2,0.3,0.4,0.3,0.6v0c0,0.2-0.1,0.5-0.3,0.6c0,0,0,0,0,0
			c-0.2,0.1-0.4,0.2-0.6,0.2H23.6c-0.2,0-0.5-0.1-0.6-0.3l0,0c-0.2-0.2-0.3-0.4-0.3-0.6v0c0-0.2,0.1-0.5,0.3-0.6l0,0l0,0l0,0
			C23.1,47.1,23.3,47,23.6,47L23.6,47z M41.3,47.7H23.6c0,0-0.1,0-0.1,0l0,0c0,0,0,0.1,0,0.1v0c0,0,0,0.1,0,0.1l0,0l0,0
			c0,0,0.1,0,0.1,0h17.7c0,0,0.1,0,0.1,0l0,0c0,0,0-0.1,0-0.1v0c0,0,0-0.1,0-0.1l0,0l0,0C41.4,47.7,41.3,47.7,41.3,47.7z"/>
		<path class="st7" d="M26.9,51.4H38c0.3,0,0.6,0.3,0.6,0.6v0c0,0.3-0.3,0.6-0.6,0.6H26.9c-0.3,0-0.6-0.3-0.6-0.6v0
			C26.2,51.7,26.5,51.4,26.9,51.4z"/>
		<path class="st5" d="M26.9,51.1H38c0.3,0,0.5,0.1,0.7,0.3c0,0,0,0,0,0c0.2,0.2,0.3,0.4,0.3,0.7v0c0,0.3-0.1,0.5-0.3,0.7l0,0l0,0
			C38.5,52.9,38.3,53,38,53H26.9c-0.3,0-0.5-0.1-0.7-0.3l0,0l0,0c-0.2-0.2-0.3-0.4-0.3-0.7v0c0-0.3,0.1-0.5,0.3-0.7c0,0,0,0,0,0
			C26.4,51.2,26.6,51.1,26.9,51.1L26.9,51.1z M38,51.8H26.9c-0.1,0-0.1,0-0.2,0.1l0,0c0,0-0.1,0.1-0.1,0.2v0c0,0.1,0,0.1,0.1,0.2
			l0,0c0,0,0.1,0.1,0.2,0.1H38c0.1,0,0.1,0,0.2-0.1l0,0c0,0,0.1-0.1,0.1-0.2v0c0-0.1,0-0.1-0.1-0.2l0,0C38.1,51.8,38.1,51.8,38,51.8
			z"/>
		<path class="st4" d="M80.8,94.8c0,0,1.3-1.4,1.4-3.6h11.3c0,0,0.1,1.9,1.5,3.6H80.8z"/>
		<path class="st5" d="M80.6,94.5c0.2-0.2,1.2-1.4,1.3-3.4c0-0.2,0.2-0.3,0.4-0.3v0h11.3c0.2,0,0.4,0.2,0.4,0.4
			c0,0.2,0.2,1.8,1.5,3.4c0.1,0.2,0.1,0.4,0,0.5c-0.1,0.1-0.1,0.1-0.2,0.1v0H80.8c-0.2,0-0.4-0.2-0.4-0.4
			C80.5,94.7,80.5,94.6,80.6,94.5L80.6,94.5z M82.5,91.5c-0.1,1.3-0.6,2.3-1,2.9h12.8c-0.8-1.2-1.1-2.4-1.2-2.9H82.5z"/>
		<rect x="78.9" y="95.3" class="st6" width="18.1" height="4.5"/>
		<path class="st5" d="M79.3,99.4h17.4v-3.7H79.3V99.4L79.3,99.4z M97,100.1H78.9c-0.2,0-0.4-0.2-0.4-0.4v-4.5
			c0-0.2,0.2-0.4,0.4-0.4H97c0.2,0,0.4,0.2,0.4,0.4v4.5C97.3,100,97.2,100.1,97,100.1z"/>
		<path class="st7" d="M79.1,95.6h17.7c0.3,0,0.5-0.2,0.5-0.5v0c0-0.3-0.2-0.5-0.5-0.5H79.1c-0.3,0-0.5,0.2-0.5,0.5v0
			C78.6,95.3,78.8,95.6,79.1,95.6z"/>
		<path class="st5" d="M79.1,95.2h17.7c0,0,0.1,0,0.1,0l0,0c0,0,0-0.1,0-0.1v0c0,0,0-0.1,0-0.1l0,0l0,0c0,0-0.1,0-0.1,0H79.1
			c0,0-0.1,0-0.1,0c0,0,0,0.1,0,0.1v0c0,0,0,0.1,0,0.1C79,95.2,79,95.2,79.1,95.2L79.1,95.2z M96.8,95.9H79.1
			c-0.2,0-0.5-0.1-0.6-0.3c-0.2-0.2-0.3-0.4-0.3-0.6v0c0-0.2,0.1-0.5,0.3-0.6c0.2-0.2,0.4-0.3,0.6-0.3h17.7c0.2,0,0.5,0.1,0.6,0.3
			l0,0c0.2,0.2,0.3,0.4,0.3,0.6v0c0,0.2-0.1,0.4-0.2,0.6c0,0,0,0,0,0C97.3,95.8,97,95.9,96.8,95.9z"/>
		<path class="st7" d="M82.4,91.5h11.1c0.3,0,0.6-0.3,0.6-0.6l0,0c0-0.3-0.3-0.6-0.6-0.6H82.4c-0.3,0-0.6,0.3-0.6,0.6l0,0
			C81.7,91.2,82,91.5,82.4,91.5z"/>
		<path class="st5" d="M82.4,91.1h11.1c0.1,0,0.1,0,0.2-0.1c0,0,0.1-0.1,0.1-0.2l0,0c0-0.1,0-0.1-0.1-0.2l0,0c0,0-0.1-0.1-0.2-0.1
			H82.4c-0.1,0-0.1,0-0.2,0.1l0,0l0,0c0,0-0.1,0.1-0.1,0.2l0,0c0,0.1,0,0.1,0.1,0.2l0,0C82.2,91.1,82.3,91.1,82.4,91.1L82.4,91.1z
			 M93.5,91.8H82.4c-0.3,0-0.5-0.1-0.7-0.3l0,0l0,0c-0.2-0.2-0.3-0.4-0.3-0.7l0,0c0-0.3,0.1-0.5,0.3-0.7l0,0
			c0.2-0.2,0.4-0.3,0.7-0.3h11.1c0.3,0,0.5,0.1,0.7,0.3c0,0,0,0,0,0c0.2,0.2,0.3,0.4,0.3,0.7l0,0c0,0.3-0.1,0.5-0.3,0.7
			C94,91.7,93.8,91.8,93.5,91.8z"/>
		<rect x="82.5" y="52.5" class="st7" width="10.8" height="37.7"/>
		<path class="st5" d="M82.9,89.8H93v-37H82.9V89.8L82.9,89.8z M93.3,90.6H82.5c-0.2,0-0.4-0.2-0.4-0.4V52.5c0-0.2,0.2-0.4,0.4-0.4
			h10.8c0.2,0,0.4,0.2,0.4,0.4v37.7C93.7,90.4,93.5,90.6,93.3,90.6z"/>
		<path class="st4" d="M80.8,48.1c0,0,1.3,1.4,1.4,3.6h11.3c0,0,0.1-1.9,1.5-3.6H80.8z"/>
		<path class="st5" d="M81.6,48.5c0.4,0.6,0.9,1.6,1,2.9h10.6c0.1-0.6,0.4-1.7,1.2-2.9H81.6L81.6,48.5z M81.8,51.7
			c-0.1-1.9-1.1-3.2-1.3-3.4c-0.1-0.1-0.1-0.2-0.1-0.3c0-0.2,0.2-0.4,0.4-0.4H95v0c0.1,0,0.2,0,0.2,0.1c0.2,0.1,0.2,0.4,0,0.5
			c-1.3,1.6-1.4,3.2-1.5,3.4c0,0.2-0.2,0.4-0.4,0.4H82.2v0C82,52.1,81.9,51.9,81.8,51.7z"/>
		<rect x="78.9" y="43.1" class="st6" width="18.1" height="4.5"/>
		<path class="st5" d="M79.3,47.2h17.4v-3.7H79.3V47.2L79.3,47.2z M97,47.9H78.9c-0.2,0-0.4-0.2-0.4-0.4v-4.5c0-0.2,0.2-0.4,0.4-0.4
			H97c0.2,0,0.4,0.2,0.4,0.4v4.5C97.3,47.8,97.2,47.9,97,47.9z"/>
		<path class="st7" d="M79.1,47.3h17.7c0.3,0,0.5,0.2,0.5,0.5v0c0,0.3-0.2,0.5-0.5,0.5H79.1c-0.3,0-0.5-0.2-0.5-0.5v0
			C78.6,47.6,78.8,47.3,79.1,47.3z"/>
		<path class="st5" d="M79.1,47h17.7c0.2,0,0.5,0.1,0.6,0.3c0,0,0,0,0,0c0.1,0.2,0.2,0.4,0.2,0.6v0c0,0.2-0.1,0.5-0.3,0.6l0,0
			c-0.2,0.2-0.4,0.3-0.6,0.3H79.1c-0.2,0-0.5-0.1-0.6-0.3c-0.2-0.2-0.3-0.4-0.3-0.6v0c0-0.2,0.1-0.5,0.3-0.6
			C78.6,47.1,78.8,47,79.1,47L79.1,47z M96.8,47.7H79.1c0,0-0.1,0-0.1,0c0,0,0,0.1,0,0.1v0c0,0,0,0.1,0,0.1c0,0,0.1,0,0.1,0h17.7
			c0,0,0.1,0,0.1,0l0,0l0,0c0,0,0-0.1,0-0.1v0c0,0,0-0.1,0-0.1l0,0C96.9,47.7,96.8,47.7,96.8,47.7z"/>
		<path class="st7" d="M82.4,51.4h11.1c0.3,0,0.6,0.3,0.6,0.6v0c0,0.3-0.3,0.6-0.6,0.6H82.4c-0.3,0-0.6-0.3-0.6-0.6v0
			C81.7,51.7,82,51.4,82.4,51.4z"/>
		<path class="st5" d="M82.4,51.1h11.1c0.3,0,0.5,0.1,0.7,0.3c0,0,0,0,0,0c0.2,0.2,0.3,0.4,0.3,0.7v0c0,0.3-0.1,0.5-0.3,0.7l0,0l0,0
			C94,52.9,93.8,53,93.5,53H82.4c-0.3,0-0.5-0.1-0.7-0.3c0,0,0,0,0,0c-0.2-0.2-0.3-0.4-0.3-0.7v0c0-0.3,0.1-0.5,0.3-0.7l0,0l0,0
			C81.9,51.2,82.1,51.1,82.4,51.1L82.4,51.1z M93.5,51.8H82.4c-0.1,0-0.1,0-0.2,0.1l0,0c0,0-0.1,0.1-0.1,0.2v0c0,0.1,0,0.1,0.1,0.2
			l0,0c0,0,0.1,0.1,0.2,0.1h11.1c0.1,0,0.1,0,0.2-0.1l0,0c0,0,0.1-0.1,0.1-0.2v0c0-0.1,0-0.1-0.1-0.2l0,0
			C93.6,51.8,93.6,51.8,93.5,51.8z"/>
		<path class="st4" d="M53.1,94.8c0,0,1.3-1.4,1.4-3.6h11.3c0,0,0.1,1.9,1.5,3.6H53.1z"/>
		<path class="st5" d="M52.8,94.5c0.2-0.2,1.2-1.4,1.3-3.4c0-0.2,0.2-0.3,0.4-0.3v0h11.3c0.2,0,0.4,0.2,0.4,0.4
			c0,0.2,0.2,1.8,1.5,3.4c0.1,0.2,0.1,0.4,0,0.5c-0.1,0.1-0.1,0.1-0.2,0.1v0H53.1c-0.2,0-0.4-0.2-0.4-0.4
			C52.7,94.7,52.8,94.6,52.8,94.5L52.8,94.5z M54.8,91.5c-0.1,1.3-0.6,2.3-1,2.9h12.8c-0.8-1.2-1.1-2.4-1.2-2.9H54.8z"/>
		<rect x="51.1" y="95.3" class="st6" width="18.1" height="4.5"/>
		<path class="st5" d="M51.5,99.4h17.4v-3.7H51.5V99.4L51.5,99.4z M69.2,100.1H51.1c-0.2,0-0.4-0.2-0.4-0.4v-4.5
			c0-0.2,0.2-0.4,0.4-0.4h18.1c0.2,0,0.4,0.2,0.4,0.4v4.5C69.6,100,69.4,100.1,69.2,100.1z"/>
		<path class="st7" d="M51.3,95.6h17.7c0.3,0,0.5-0.2,0.5-0.5v0c0-0.3-0.2-0.5-0.5-0.5H51.3c-0.3,0-0.5,0.2-0.5,0.5v0
			C50.8,95.3,51,95.6,51.3,95.6z"/>
		<path class="st5" d="M51.3,95.2h17.7c0,0,0.1,0,0.1,0l0,0c0,0,0-0.1,0-0.1v0c0,0,0-0.1,0-0.1l0,0c0,0-0.1,0-0.1,0H51.3
			c0,0-0.1,0-0.1,0l0,0l0,0c0,0,0,0.1,0,0.1v0c0,0,0,0.1,0,0.1l0,0C51.2,95.2,51.3,95.2,51.3,95.2L51.3,95.2z M69.1,95.9H51.3
			c-0.2,0-0.4-0.1-0.6-0.3l0,0l0,0l0,0c-0.2-0.2-0.3-0.4-0.3-0.6v0c0-0.2,0.1-0.5,0.3-0.6l0,0c0.2-0.2,0.4-0.3,0.6-0.3h17.7
			c0.2,0,0.4,0.1,0.6,0.3l0,0l0,0c0.2,0.2,0.3,0.4,0.3,0.6v0c0,0.2-0.1,0.4-0.3,0.6l0,0l0,0l0,0C69.5,95.8,69.3,95.9,69.1,95.9z"/>
		<path class="st7" d="M54.6,91.5h11.1c0.3,0,0.6-0.3,0.6-0.6l0,0c0-0.3-0.3-0.6-0.6-0.6H54.6c-0.3,0-0.6,0.3-0.6,0.6l0,0
			C54,91.2,54.3,91.5,54.6,91.5z"/>
		<path class="st5" d="M54.6,91.1h11.1c0.1,0,0.1,0,0.2-0.1c0,0,0.1-0.1,0.1-0.2l0,0c0-0.1,0-0.1-0.1-0.2l0,0c0,0-0.1-0.1-0.2-0.1
			H54.6c-0.1,0-0.1,0-0.2,0.1l0,0l0,0c0,0-0.1,0.1-0.1,0.2l0,0c0,0.1,0,0.1,0.1,0.2C54.5,91.1,54.5,91.1,54.6,91.1L54.6,91.1z
			 M65.7,91.8H54.6c-0.3,0-0.5-0.1-0.7-0.3c-0.2-0.2-0.3-0.4-0.3-0.7l0,0c0-0.3,0.1-0.5,0.3-0.7l0,0c0.2-0.2,0.4-0.3,0.7-0.3h11.1
			c0.3,0,0.5,0.1,0.7,0.3c0,0,0,0,0,0c0.2,0.2,0.3,0.4,0.3,0.7l0,0c0,0.3-0.1,0.5-0.3,0.7C66.3,91.7,66,91.8,65.7,91.8z"/>
		<rect x="54.8" y="52.5" class="st7" width="10.8" height="37.7"/>
		<path class="st5" d="M55.1,89.8h10.1v-37H55.1V89.8L55.1,89.8z M65.6,90.6H54.8c-0.2,0-0.4-0.2-0.4-0.4V52.5
			c0-0.2,0.2-0.4,0.4-0.4h10.8c0.2,0,0.4,0.2,0.4,0.4v37.7C65.9,90.4,65.8,90.6,65.6,90.6z"/>
		<path class="st4" d="M53.1,48.1c0,0,1.3,1.4,1.4,3.6h11.3c0,0,0.1-1.9,1.5-3.6H53.1z"/>
		<path class="st5" d="M53.8,48.5c0.4,0.6,0.9,1.6,1,2.9h10.6c0.1-0.6,0.4-1.7,1.2-2.9H53.8L53.8,48.5z M54.1,51.7
			c-0.1-1.9-1.1-3.2-1.3-3.4c-0.1-0.1-0.1-0.2-0.1-0.3c0-0.2,0.2-0.4,0.4-0.4h14.2v0c0.1,0,0.2,0,0.2,0.1c0.2,0.1,0.2,0.4,0,0.5
			c-1.3,1.6-1.4,3.2-1.5,3.4c0,0.2-0.2,0.4-0.4,0.4H54.5v0C54.3,52.1,54.1,51.9,54.1,51.7z"/>
		<rect x="51.1" y="43.1" class="st6" width="18.1" height="4.5"/>
		<path class="st5" d="M51.5,47.2h17.4v-3.7H51.5V47.2L51.5,47.2z M69.2,47.9H51.1c-0.2,0-0.4-0.2-0.4-0.4v-4.5
			c0-0.2,0.2-0.4,0.4-0.4h18.1c0.2,0,0.4,0.2,0.4,0.4v4.5C69.6,47.8,69.4,47.9,69.2,47.9z"/>
		<path class="st7" d="M51.3,47.3h17.7c0.3,0,0.5,0.2,0.5,0.5v0c0,0.3-0.2,0.5-0.5,0.5H51.3c-0.3,0-0.5-0.2-0.5-0.5v0
			C50.8,47.6,51,47.3,51.3,47.3z"/>
		<path class="st5" d="M51.3,47h17.7c0.2,0,0.5,0.1,0.6,0.3l0,0l0,0l0,0c0.2,0.2,0.3,0.4,0.3,0.6v0c0,0.2-0.1,0.5-0.3,0.6l0,0l0,0
			c-0.2,0.2-0.4,0.3-0.6,0.3H51.3c-0.2,0-0.5-0.1-0.6-0.3l0,0c-0.2-0.2-0.3-0.4-0.3-0.6v0c0-0.2,0.1-0.5,0.3-0.6l0,0l0,0l0,0
			C50.9,47.1,51.1,47,51.3,47L51.3,47z M69.1,47.7H51.3c0,0-0.1,0-0.1,0l0,0c0,0,0,0.1,0,0.1v0c0,0,0,0.1,0,0.1l0,0l0,0
			c0,0,0.1,0,0.1,0h17.7c0,0,0.1,0,0.1,0l0,0c0,0,0-0.1,0-0.1v0c0,0,0-0.1,0-0.1l0,0C69.1,47.7,69.1,47.7,69.1,47.7z"/>
		<path class="st7" d="M54.6,51.4h11.1c0.3,0,0.6,0.3,0.6,0.6v0c0,0.3-0.3,0.6-0.6,0.6H54.6c-0.3,0-0.6-0.3-0.6-0.6v0
			C54,51.7,54.3,51.4,54.6,51.4z"/>
		<path class="st5" d="M54.6,51.1h11.1c0.3,0,0.5,0.1,0.7,0.3c0,0,0,0,0,0c0.2,0.2,0.3,0.4,0.3,0.7v0c0,0.3-0.1,0.5-0.3,0.7l0,0l0,0
			C66.3,52.9,66,53,65.7,53H54.6c-0.3,0-0.5-0.1-0.7-0.3c0,0,0,0,0,0c-0.2-0.2-0.3-0.4-0.3-0.7v0c0-0.3,0.1-0.5,0.3-0.7l0,0l0,0
			C54.1,51.2,54.3,51.1,54.6,51.1L54.6,51.1z M65.7,51.8H54.6c-0.1,0-0.1,0-0.2,0.1l0,0c0,0-0.1,0.1-0.1,0.2v0c0,0.1,0,0.1,0.1,0.2
			l0,0c0,0,0.1,0.1,0.2,0.1h11.1c0.1,0,0.1,0,0.2-0.1l0,0c0,0,0.1-0.1,0.1-0.2v0c0-0.1,0-0.1-0.1-0.2l0,0
			C65.9,51.8,65.8,51.8,65.7,51.8z"/>
	</g>
	<polygon class="st7" points="102.5,43.1 18.5,43.1 60.5,10.4 	"/>
	<path class="st5" d="M102.5,43.8h-84c-0.4,0-0.7-0.3-0.7-0.7c0-0.3,0.1-0.5,0.3-0.6l42-32.7c0.3-0.2,0.6-0.2,0.9,0l42,32.7
		c0.3,0.2,0.4,0.7,0.1,1C102.9,43.8,102.7,43.8,102.5,43.8L102.5,43.8L102.5,43.8z M20.6,42.4h79.9L60.5,11.3L20.6,42.4z"/>
	<polygon class="st4" points="111.3,46.3 60.5,4.9 60.5,4.9 9.7,46.3 17,46.3 60.5,10.9 104,46.3 	"/>
	<path class="st5" d="M109.3,45.6L60.5,5.8L11.7,45.6h5l43.3-35.3c0.3-0.2,0.7-0.2,0.9,0l43.3,35.3H109.3L109.3,45.6z M61.1,4.4
		l50.6,41.3c0.2,0.1,0.3,0.3,0.3,0.6c0,0.4-0.3,0.7-0.7,0.7H104v0c-0.2,0-0.3-0.1-0.5-0.2l-43-35.1l-43,35.1C17.4,47,17.2,47,17,47
		H9.7v0c-0.2,0-0.4-0.1-0.6-0.3c-0.2-0.3-0.2-0.8,0.1-1L60,4.4c0,0,0.1-0.1,0.1-0.1C60.4,4.1,60.8,4.2,61.1,4.4z"/>
	<path class="st3" d="M49.3,37v-7.1h-2.6c-0.1,0-0.3,0-0.3,0.3c0,0.1,0.1,0.2,0.2,0.3C47,30.6,47,30.6,47,31v5c0,0.4,0,0.4-0.3,0.5
		c-0.1,0-0.2,0.1-0.2,0.3c0,0.3,0.2,0.3,0.3,0.3H49.3z"/>
	<path class="st3" d="M52.7,31.6c0-0.7-0.3-1.2-0.9-1.5c-0.6-0.3-1.2-0.3-1.8-0.3h-0.3v0.6c0.6,0.1,0.7,0.4,0.7,0.8v1
		c0,0.4,0,0.8-0.7,0.8v0.6c0.6,0,0.7,0.5,0.7,0.9v1.2c0,0.3-0.1,0.7-0.7,0.7V37H50c0.7,0,1.3,0,1.9-0.3c0.6-0.3,0.9-0.9,0.9-1.5
		c0-1.2-0.8-1.7-1.9-1.8v0C51.8,33.2,52.7,32.7,52.7,31.6z"/>
	<path class="st3" d="M54.7,35.6l0.9-3.3l-0.2-1.1h0l-1.1,4.2c-0.2,0.7-0.4,0.9-0.6,1c-0.2,0.1-0.4,0.1-0.4,0.3
		c0,0.3,0.3,0.3,0.5,0.3h1.1c0.2,0,0.5,0,0.5-0.3c0-0.2-0.1-0.2-0.3-0.3C54.7,36.3,54.6,36.2,54.7,35.6z"/>
	<path class="st3" d="M59.2,35.9l-1.4-6h-2.1l-0.1,0.5l1,4.2h-1.2l-0.1,0.6h1.4l0.2,0.7c0.1,0.4,0,0.4-0.2,0.6
		c-0.1,0.1-0.2,0.1-0.2,0.3c0,0.2,0.3,0.3,0.5,0.3h2.4c0.2,0,0.5,0,0.5-0.2c0-0.2-0.1-0.2-0.2-0.3C59.3,36.4,59.3,36.2,59.2,35.9z"
		/>
	<path class="st3" d="M65.9,34.7l-2.8-4.8h-2.4c-0.2,0-0.5,0-0.5,0.3c0,0.2,0.1,0.2,0.3,0.3c0.3,0.1,0.4,0.2,0.5,0.5l3.5,6h1.4V34.7
		z"/>
	<path class="st3" d="M61.5,35.5v-2.9l-0.5-1h0v3.8c-0.2,1.2-0.8,0.8-0.8,1.2c0,0.3,0.4,0.3,0.5,0.3h1.1c0.1,0,0.5,0,0.5-0.3
		C62.3,36.3,61.7,36.7,61.5,35.5z"/>
	<path class="st3" d="M65.9,31.6c0-1.4,0.8-1,0.8-1.4c0-0.3-0.3-0.3-0.4-0.3H65c-0.1,0-0.4,0-0.4,0.3c0,0.4,0.8,0.1,0.8,1.4V33
		l0.5,1h0V31.6z"/>
	<path class="st3" d="M71,30.2c0-0.3-0.3-0.3-0.4-0.3h-2.7c0,0-0.4,0-0.4,0.3c0,0.1,0.1,0.2,0.2,0.3c0.3,0.1,0.3,0.2,0.3,0.5v5
		c0,0.4,0,0.4-0.3,0.5c-0.1,0-0.2,0.1-0.2,0.3c0,0.3,0.3,0.3,0.4,0.3h2.7c0,0,0.4,0,0.4-0.3c0-0.1-0.1-0.2-0.2-0.3
		c-0.3-0.1-0.3-0.2-0.3-0.5v-5c0-0.4,0-0.4,0.3-0.5C70.9,30.4,71,30.3,71,30.2z"/>
	<path class="st3" d="M74,30.6c0.2-0.1,0.4-0.1,0.4-0.4c0-0.3-0.3-0.3-0.5-0.3h-1.6c-0.2,0-0.5,0-0.5,0.3c0,0.2,0.1,0.2,0.3,0.3
		c0.2,0.1,0.4,0.2,0.4,0.5c0,0.2-0.1,0.4-0.2,0.6L71,33.1c-0.1,0.2-0.2,0.3-0.2,0.5s0.1,0.4,0.1,0.6l0.6,1.8c0,0.1,0.1,0.2,0.1,0.3
		c0,0.2-0.4,0.2-0.4,0.5c0,0.3,0.3,0.3,0.5,0.3h2.4c0.2,0,0.5,0,0.5-0.3c0-0.2-0.1-0.2-0.2-0.3c-0.2-0.1-0.2-0.3-0.3-0.5l-1.5-4
		l0.2-0.2C73.1,31.2,73.3,30.8,74,30.6z"/>
	<path class="st7" d="M21.6,99.4h78c1.2,0,2.1,1,2.1,2.3v0c0,1.2-0.9,2.3-2.1,2.3h-78c-1.2,0-2.1-1-2.1-2.3v0
		C19.5,100.4,20.4,99.4,21.6,99.4z"/>
	<path class="st5" d="M21.6,99.1h78c0.7,0,1.3,0.3,1.7,0.8c0.4,0.5,0.7,1.1,0.7,1.8v0c0,0.7-0.3,1.4-0.7,1.8
		c-0.4,0.5-1.1,0.8-1.7,0.8h-78c-0.7,0-1.3-0.3-1.7-0.8c-0.4-0.5-0.7-1.1-0.7-1.8v0c0-0.7,0.3-1.4,0.7-1.8
		C20.3,99.4,20.9,99.1,21.6,99.1L21.6,99.1z M99.6,99.8h-78c-0.5,0-0.9,0.2-1.2,0.5c-0.3,0.3-0.5,0.8-0.5,1.4v0c0,0.5,0.2,1,0.5,1.4
		c0.3,0.3,0.7,0.5,1.2,0.5h78c0.5,0,0.9-0.2,1.2-0.5c0.3-0.3,0.5-0.8,0.5-1.4v0c0-0.5-0.2-1-0.5-1.4C100.5,100,100,99.8,99.6,99.8z"
		/>
	<path class="st7" d="M16.5,103.3h88.2c1.2,0,2.1,0.9,2.1,2.1v0c0,1.2-0.9,2.1-2.1,2.1H16.5c-1.2,0-2.1-0.9-2.1-2.1v0
		C14.4,104.2,15.3,103.3,16.5,103.3z"/>
	<path class="st5" d="M16.5,102.9h88.2c0.7,0,1.3,0.3,1.7,0.7l0,0l0,0l0,0c0.4,0.4,0.7,1.1,0.7,1.7v0c0,0.7-0.3,1.3-0.7,1.7
		c0,0,0,0,0,0c-0.4,0.4-1,0.7-1.7,0.7H16.5c-0.7,0-1.3-0.3-1.7-0.7l0,0c-0.4-0.4-0.7-1.1-0.7-1.7v0c0-0.7,0.3-1.3,0.7-1.7l0,0l0,0
		l0,0C15.2,103.2,15.8,102.9,16.5,102.9L16.5,102.9z M104.7,103.7H16.5c-0.5,0-0.9,0.2-1.2,0.5l0,0c-0.3,0.3-0.5,0.7-0.5,1.2v0
		c0,0.5,0.2,0.9,0.5,1.2l0,0l0,0c0.3,0.3,0.7,0.5,1.2,0.5h88.2c0.5,0,0.9-0.2,1.2-0.5c0,0,0,0,0,0c0.3-0.3,0.5-0.7,0.5-1.2v0
		c0-0.5-0.2-0.9-0.5-1.2l0,0C105.6,103.9,105.1,103.7,104.7,103.7z"/>
	<path class="st7" d="M11.8,106.8h97.5c1.2,0,2.1,0.9,2.1,2.1v0c0,1.2-0.9,2.1-2.1,2.1H11.8c-1.2,0-2.1-0.9-2.1-2.1v0
		C9.7,107.8,10.7,106.8,11.8,106.8z"/>
	<path class="st5" d="M11.8,106.5h97.5c0.7,0,1.3,0.3,1.7,0.7l0,0l0,0l0,0c0.4,0.4,0.7,1.1,0.7,1.7v0c0,0.7-0.3,1.3-0.7,1.7l0,0l0,0
		l0,0c-0.4,0.4-1.1,0.7-1.7,0.7H11.8c-0.7,0-1.3-0.3-1.7-0.7l0,0l0,0l0,0c-0.4-0.4-0.7-1.1-0.7-1.7v0c0-0.7,0.3-1.3,0.7-1.7l0,0l0,0
		l0,0C10.5,106.8,11.1,106.5,11.8,106.5L11.8,106.5z M109.3,107.2H11.8c-0.5,0-0.9,0.2-1.2,0.5l0,0c-0.3,0.3-0.5,0.7-0.5,1.2v0
		c0,0.5,0.2,0.9,0.5,1.2l0,0c0.3,0.3,0.7,0.5,1.2,0.5h97.5c0.5,0,0.9-0.2,1.2-0.5l0,0c0.3-0.3,0.5-0.7,0.5-1.2v0
		c0-0.5-0.2-0.9-0.5-1.2l0,0C110.2,107.4,109.8,107.2,109.3,107.2z"/>
	<path class="st7" d="M11.8,110.7h97.5c1.2,0,2.1,0.9,2.1,2.1l0,0c0,1.2-0.9,2.1-2.1,2.1H11.8c-1.2,0-2.1-0.9-2.1-2.1l0,0
		C9.7,111.6,10.7,110.7,11.8,110.7z"/>
	<path class="st5" d="M11.8,110.3h97.5c0.7,0,1.3,0.3,1.7,0.7l0,0l0,0l0,0c0.4,0.4,0.7,1.1,0.7,1.7l0,0c0,0.7-0.3,1.3-0.7,1.7
		c0,0,0,0,0,0c-0.4,0.4-1,0.7-1.7,0.7H11.8c-0.7,0-1.3-0.3-1.7-0.7l0,0c-0.4-0.4-0.7-1.1-0.7-1.7l0,0c0-0.7,0.3-1.3,0.7-1.7l0,0l0,0
		l0,0C10.5,110.6,11.1,110.3,11.8,110.3L11.8,110.3z M109.3,111H11.8c-0.5,0-0.9,0.2-1.2,0.5l0,0c-0.3,0.3-0.5,0.7-0.5,1.2l0,0
		c0,0.5,0.2,0.9,0.5,1.2l0,0l0,0c0.3,0.3,0.7,0.5,1.2,0.5h97.5c0.5,0,0.9-0.2,1.2-0.5c0,0,0,0,0,0c0.3-0.3,0.5-0.7,0.5-1.2l0,0
		c0-0.5-0.2-0.9-0.5-1.2l0,0C110.2,111.2,109.8,111,109.3,111z"/>
	<polygon class="st8" points="59.6,6.6 107.4,45.6 109.3,45.6 60.5,5.8 	"/>
	<polygon class="st9" points="58.7,13.2 96.2,42.4 98.1,42.4 60.5,11.8 	"/>
	<rect x="94.8" y="43.8" class="st10" width="1.9" height="3.1"/>
	<path class="st9" d="M96.9,47.9L96.9,47.9L96.9,47.9z M96.8,47.7h-1.7c0,0,0,0,0,0.1c0,0.1,0,0.1,0,0.2c0,0,0,0,0,0h0.3h1.4
		c0,0,0.1,0,0.1,0c0,0,0,0,0,0C97,47.8,96.9,47.7,96.8,47.7z"/>
	<path class="st8" d="M93.2,51.1c0.1-0.6,0.4-1.5,0.9-2.4h-1.7c-0.6,0.9-0.9,1.8-1.1,2.4H93.2z"/>
	<path class="st9" d="M93.7,52.3L93.7,52.3L93.7,52.3z M93.5,51.8h-1.6c0,0.1,0,0.2,0,0.3c0,0,0,0,0,0c0,0.1,0,0.2,0,0.2h1.6
		c0.1,0,0.1,0,0.1,0c0,0,0,0,0,0c0.1-0.1,0.1-0.2,0.1-0.3C93.7,51.9,93.6,51.8,93.5,51.8z"/>
	<rect x="91.1" y="53" class="st9" width="1.9" height="36.8"/>
	<path class="st9" d="M93.5,90.6h-1.6c0,0.1,0,0.2,0,0.2c0,0.1,0,0.2,0,0.3h1.6c0.1,0,0.2-0.1,0.3-0.2
		C93.8,90.8,93.7,90.6,93.5,90.6z"/>
	<path class="st8" d="M93.2,91.8h-1.8c0.1,0.6,0.4,1.5,1.1,2.4h1.7C93.6,93.3,93.3,92.4,93.2,91.8z"/>
	<path class="st9" d="M96.9,95L96.9,95L96.9,95z M96.8,94.9h-1.4h-0.3c0,0,0,0,0,0c0,0.1,0,0.1,0,0.2c0,0,0,0,0,0.1h1.7
		c0.1,0,0.2-0.1,0.1-0.2C96.9,95,96.9,95,96.8,94.9C96.9,94.9,96.8,94.9,96.8,94.9z"/>
	<rect x="94.8" y="95.9" class="st10" width="1.9" height="3.1"/>
	<rect x="67" y="43.8" class="st10" width="1.9" height="3.1"/>
	<path class="st9" d="M69.1,47.7h-1.7c0,0,0,0,0,0.1c0,0.1,0,0.1,0,0.2c0,0,0,0,0,0h0.3h1.4c0,0,0.1,0,0.1,0
		C69.2,47.9,69.2,47.7,69.1,47.7z"/>
	<path class="st8" d="M66.4,48.7h-1.7c-0.6,0.9-0.9,1.8-1.1,2.4h1.8C65.6,50.5,65.8,49.6,66.4,48.7z"/>
	<path class="st9" d="M65.9,52.3L65.9,52.3L65.9,52.3z M65.7,51.8h-1.6c0,0.1,0,0.2,0,0.3c0,0,0,0,0,0c0,0.1,0,0.2,0,0.2h1.6
		c0.1,0,0.1,0,0.1,0c0,0,0,0,0,0C66,52.2,66,52.1,66,52C66,51.9,65.9,51.8,65.7,51.8z"/>
	<rect x="63.4" y="53" class="st9" width="1.9" height="36.8"/>
	<path class="st9" d="M65.7,90.6h-1.6c0,0.1,0,0.2,0,0.2c0,0.1,0,0.2,0,0.3h1.6c0.1,0,0.2-0.1,0.3-0.2C66,90.8,66,90.6,65.7,90.6z"
		/>
	<path class="st8" d="M65.5,91.8h-1.8c0.1,0.6,0.4,1.5,1.1,2.4h1.7C65.8,93.3,65.6,92.4,65.5,91.8z"/>
	<path class="st9" d="M69.1,94.9h-1.4h-0.3c0,0,0,0,0,0c0,0.1,0,0.1,0,0.2c0,0,0,0,0,0.1h1.7c0.1,0,0.2-0.2,0.1-0.3
		C69.1,94.9,69.1,94.9,69.1,94.9z"/>
	<rect x="67" y="95.9" class="st10" width="1.9" height="3.1"/>
	<rect x="39.2" y="43.8" class="st10" width="1.9" height="3.1"/>
	<path class="st9" d="M41.4,47.7L41.4,47.7L41.4,47.7z M41.3,47.7h-1.7c0,0,0,0,0,0.1c0,0.1,0,0.1,0,0.2c0,0,0,0,0,0h0.3h1.4
		c0,0,0.1,0,0.1,0c0.1-0.1,0.1-0.1,0-0.2L41.3,47.7z"/>
	<path class="st8" d="M37.7,51.1c0.1-0.6,0.4-1.5,0.9-2.4h-1.7c-0.6,0.9-0.9,1.8-1.1,2.4H37.7z"/>
	<path class="st9" d="M38.2,52.3L38.2,52.3L38.2,52.3z M38,51.8h-1.6c0,0.1,0,0.2,0,0.3c0,0,0,0,0,0c0,0.1,0,0.2,0,0.2H38
		c0.1,0,0.1,0,0.1,0c0,0,0,0,0,0c0.1-0.1,0.1-0.2,0.1-0.3C38.2,51.9,38.1,51.8,38,51.8z"/>
	<polygon class="st9" points="37.5,53 35.6,53 35.6,55.9 35.6,86.9 35.6,89.8 37.5,89.8 	"/>
	<path class="st9" d="M38,90.6h-1.6c0,0.1,0,0.2,0,0.2c0,0.1,0,0.2,0,0.3H38c0.1,0,0.2-0.1,0.3-0.2C38.3,90.8,38.2,90.6,38,90.6z"/>
	<path class="st8" d="M37.7,91.8h-1.8c0.1,0.6,0.4,1.5,1.1,2.4h1.7C38.1,93.3,37.8,92.4,37.7,91.8z"/>
	<rect x="39.2" y="95.9" class="st10" width="1.9" height="3.1"/>
	<path class="st9" d="M41.3,94.9h-1.4h-0.3c0,0,0,0,0,0c0,0.1,0,0.1,0,0.2c0,0,0,0,0,0.1l1.7,0c0.1-0.1,0.2-0.2,0.1-0.3
		C41.4,94.9,41.3,94.9,41.3,94.9z"/>
	<path class="st9" d="M100,101.7L100,101.7L100,101.7z M99.3,99.8c0.4,0.5,0.7,1.1,0.7,1.8c0,0.5-0.1,0.9-0.3,1.3h1.2
		c0.3-0.3,0.4-0.8,0.4-1.3c0-0.5-0.2-1-0.5-1.4c-0.3-0.3-0.7-0.5-1.2-0.5L99.3,99.8C99.2,99.8,99.3,99.8,99.3,99.8z"/>
	<path class="st9" d="M104.4,103.7c0.7,0.7,1,1.9,0.5,2.8h1.2c0.5-0.6,0.6-1.6-0.1-2.3c-0.3-0.3-0.7-0.5-1.2-0.5H104.4z"/>
	<path class="st9" d="M109,107.2c0.4,0.4,0.7,1.1,0.7,1.7c0,0.5-0.2,1-0.4,1.4c0.3,0,0.6,0.1,0.8,0.1c0.9-0.5,1.3-1.9,0.4-2.7
		c-0.3-0.3-0.7-0.5-1.2-0.5H109z"/>
	<path class="st9" d="M110.2,111.2c-0.2-0.1-0.5-0.2-0.8-0.2c0,0-0.1,0-0.1,0H109c0,0,0,0,0,0c0.1,0.1,0.2,0.2,0.3,0.4
		c0.6,0.9,0.6,2.2-0.3,3.1c0,0,0,0,0,0h0.3c1.5,0,2.3-1.9,1.2-3C110.4,111.4,110.3,111.3,110.2,111.2z"/>
</g>
</svg>
