<svg width="1288" height="930" viewBox="0 0 1288 930" fill="none" xmlns="http://www.w3.org/2000/svg">
<g clip-path="url(#clip0_66_2)">
<path d="M0 930L1288 930L1288 -6.10352e-05L-8.13032e-05 5.15654e-05L0 930Z" fill="#F2F3F5"/>
<path d="M947.9 -211.96C771.64 -178.79 747.42 220.71 413.28 266.43C79.15 312.15 36.96 596.09 -121.33 610.53" stroke="#5105E0" stroke-opacity="0.5" stroke-width="2"/>
<path d="M658.48 -239.74C534.23 -151.59 676.72 227.47 387.73 306.19C98.74 384.91 4.84997 627.83 -153.77 640.99" stroke="#5105E0" stroke-opacity="0.5" stroke-width="2"/>
<path d="M802.27 -211.51C668.8 -153.75 795.79 205.96 468.25 264.75C140.71 323.54 -5.71004 649.76 -199.79 664.65" stroke="#5105E0" stroke-opacity="0.5" stroke-width="2"/>
<path d="M911.53 -184.17C756.7 -168.61 700.41 134.92 394.63 162.58C88.8499 190.24 28.7199 466.57 -122.27 478.78" stroke="#5105E0" stroke-opacity="0.5" stroke-width="2"/>
<path d="M961.71 -248.3C808.49 -235.05 751.88 48.8999 441 79.29C130.13 109.68 78 424.7 -79.7 441.99" stroke="#5105E0" stroke-opacity="0.5" stroke-width="2"/>
</g>
<defs>
<clipPath id="clip0_66_2">
<rect width="1288" height="930" fill="white" transform="translate(1288 930) rotate(180)"/>
</clipPath>
</defs>
</svg>
