<svg width="1288" height="927" viewBox="0 0 1288 927" fill="none" xmlns="http://www.w3.org/2000/svg">
<g clip-path="url(#clip0_8_269)">
<path d="M1288 0H0V930H1288V0Z" fill="#F2F3F5"/>
<path d="M340.1 1062.96C516.36 1029.79 540.58 630.29 874.72 584.57C1208.85 538.85 1251.04 254.91 1409.33 240.47" stroke="#5105E0" stroke-opacity="0.5" stroke-width="2"/>
<path d="M629.52 1090.74C753.77 1002.59 611.28 623.53 900.27 544.81C1189.26 466.09 1283.15 223.17 1441.77 210.01" stroke="#5105E0" stroke-opacity="0.5" stroke-width="2"/>
<path d="M485.73 1062.51C619.2 1004.75 492.21 645.04 819.75 586.25C1147.29 527.46 1293.71 201.24 1487.79 186.35" stroke="#5105E0" stroke-opacity="0.5" stroke-width="2"/>
<path d="M376.47 1035.17C531.3 1019.61 587.59 716.08 893.37 688.42C1199.15 660.76 1259.28 384.43 1410.27 372.22" stroke="#5105E0" stroke-opacity="0.5" stroke-width="2"/>
<path d="M326.29 1099.3C479.51 1086.05 536.12 802.1 847 771.71C1157.87 741.32 1210 426.3 1367.7 409.01" stroke="#5105E0" stroke-opacity="0.5" stroke-width="2"/>
</g>
<defs>
<clipPath id="clip0_8_269">
<rect width="1288" height="930" fill="white"/>
</clipPath>
</defs>
</svg>
