<svg width="25" height="25" viewBox="0 0 25 25" fill="none" xmlns="http://www.w3.org/2000/svg">
<path d="M16.3333 8.83331C17.9246 8.83331 19.4508 9.46545 20.576 10.5907C21.7012 11.7159 22.3333 13.242 22.3333 14.8333V21.8333H18.3333V14.8333C18.3333 14.3029 18.1226 13.7942 17.7476 13.4191C17.3725 13.044 16.8638 12.8333 16.3333 12.8333C15.8029 12.8333 15.2942 13.044 14.9191 13.4191C14.5441 13.7942 14.3333 14.3029 14.3333 14.8333V21.8333H10.3333V14.8333C10.3333 13.242 10.9655 11.7159 12.0907 10.5907C13.2159 9.46545 14.742 8.83331 16.3333 8.83331V8.83331Z" stroke="#820AD1" stroke-width="2" stroke-linecap="round" stroke-linejoin="round"/>
<path d="M6.33334 9.83331H2.33334V21.8333H6.33334V9.83331Z" stroke="#820AD1" stroke-width="2" stroke-linecap="round" stroke-linejoin="round"/>
<path d="M4.33334 6.83331C5.43791 6.83331 6.33334 5.93788 6.33334 4.83331C6.33334 3.72874 5.43791 2.83331 4.33334 2.83331C3.22877 2.83331 2.33334 3.72874 2.33334 4.83331C2.33334 5.93788 3.22877 6.83331 4.33334 6.83331Z" stroke="#820AD1" stroke-width="2" stroke-linecap="round" stroke-linejoin="round"/>
</svg>
