<?xml version="1.0" encoding="utf-8"?>
<!-- Generator: Adobe Illustrator 26.4.1, SVG Export Plug-In . SVG Version: 6.00 Build 0)  -->
<svg version="1.1" id="Layer_1" xmlns="http://www.w3.org/2000/svg" xmlns:xlink="http://www.w3.org/1999/xlink" x="0px" y="0px"
	 viewBox="0 0 120 120" style="enable-background:new 0 0 120 120;" xml:space="preserve">
<style type="text/css">
	.st0{fill-rule:evenodd;clip-rule:evenodd;}
</style>
<path class="st0" d="M71.6,7.5L66,4.3L60.3,1l-5.6,3.2l-5.7,3.3l-5.6,3.2L37.8,14l-5.6,3.2l-5.7,3.3L21,23.7L15.3,27l-5.6,3.2v6.5
	v6.5v6.5v6.5v6.5v6.5v6.5v6.5v6.5l5.6,3.2l5.7,3.3l5.6,3.2l5.7,3.3l5.6,3.2l5.7,3.3l5.6,3.2l5.7,3.3l5.6,3.2l5.7-3.3l5.6-3.2
	l5.7-3.3l5.6-3.2l5.7-3.3l5.6-3.2l5.7-3.3l5.6-3.2l5.7-3.3v-6.5v-6.5v-6.5v-6.5v-6.5v-6.5v-6.5v-6.5v-6.5l-5.7-3.3l-5.6-3.2
	l-5.7-3.3l-5.6-3.2L82.8,14l-5.6-3.2L71.6,7.5L71.6,7.5z M54.7,95.2l5.6-3.2l5.7-3.3l5.6-3.2l5.7-3.3l5.6-3.2l5.7-3.3v-6.5v-13
	l5.6,3.2l5.7,3.3v6.5v6.5v6.5l-5.7,3.3l-5.6,3.2l-5.7,3.3l-5.6,3.2l-5.7,3.3l-5.6,3.2l-5.7,3.3l-5.6-3.2l-5.7-3.3L54.7,95.2
	L54.7,95.2z M49.1,85.4l-5.6,3.2l-5.7,3.3l-5.6-3.2l-5.7-3.3L21,82.2v-6.5v-6.5v-6.5v-6.5v-6.5v-6.5v-6.5l5.6-3.2l5.7-3.3l5.6-3.2
	l5.7-3.3l5.6-3.2l5.7-3.3l5.6-3.2l5.7,3.3l5.6,3.2L66,23.7L60.3,27l-5.6,3.2l-5.7,3.3l-5.6,3.2L37.8,40l-5.6,3.2v6.5v6.5l5.6-3.2
	l5.7-3.3l5.6-3.2l5.7-3.3l5.6-3.2l5.7-3.3l5.6-3.2l5.7-3.3v6.5v6.5l-5.7,3.3L66,49.7L60.3,53l-5.6,3.2l-5.7,3.3l-5.6,3.2L37.8,66
	l-5.6,3.2v6.5l5.6,3.2l5.7-3.3l5.6-3.2l5.7-3.3l5.6-3.2l5.7-3.3l5.6-3.2l5.7-3.3c0,14,0,2.7,0,13l-5.7,3.3L66,75.7l-5.7,3.3
	l-5.6,3.2L49.1,85.4L49.1,85.4z M99.7,49.7l-5.7-3.3l-5.6-3.2v-6.5v-6.5l5.6,3.2l5.7,3.3v6.5V49.7z"/>
</svg>
